<svg width="22" height="22" viewBox="0 0 22 22" fill="none" xmlns="http://www.w3.org/2000/svg">
<path d="M20.6135 11.7875L21.802 5.27027C21.8318 5.10219 21.8245 4.9296 21.7806 4.76464C21.7366 4.59968 21.657 4.44636 21.5475 4.31544C21.4379 4.18452 21.301 4.07918 21.1464 4.00684C20.9918 3.9345 20.8232 3.8969 20.6524 3.89669H5.26053L4.84163 1.59764C4.76157 1.14955 4.52639 0.74392 4.17729 0.451817C3.8282 0.159713 3.38744 -0.0002332 2.93226 2.55198e-07H1.16901C0.858966 2.55198e-07 0.561625 0.123163 0.342394 0.342394C0.123163 0.561625 0 0.858967 0 1.16901C0 1.47905 0.123163 1.77639 0.342394 1.99562C0.561625 2.21485 0.858966 2.33801 1.16901 2.33801H2.60104L5.18259 16.522C4.82343 16.8867 4.55961 17.3342 4.41441 17.825C4.26921 18.3159 4.24711 18.8349 4.35006 19.3363C4.45301 19.8377 4.67785 20.306 5.00471 20.6999C5.33156 21.0939 5.75039 21.4012 6.2242 21.5949C6.698 21.7886 7.21221 21.8626 7.72141 21.8104C8.23061 21.7583 8.71912 21.5815 9.14382 21.2958C9.56851 21.0101 9.91631 20.6242 10.1565 20.1722C10.3967 19.7202 10.5219 19.216 10.5211 18.7041C10.5187 18.4414 10.486 18.1799 10.4236 17.9248H14.5152C14.4528 18.1799 14.4201 18.4414 14.4177 18.7041C14.4177 19.3206 14.6006 19.9234 14.9431 20.436C15.2856 20.9486 15.7725 21.3482 16.3421 21.5842C16.9118 21.8201 17.5385 21.8818 18.1433 21.7615C18.748 21.6413 19.3034 21.3444 19.7394 20.9084C20.1754 20.4724 20.4723 19.917 20.5925 19.3123C20.7128 18.7076 20.6511 18.0808 20.4151 17.5111C20.1792 16.9415 19.7796 16.4547 19.267 16.1121C18.7543 15.7696 18.1516 15.5867 17.5351 15.5867H7.38422L7.10171 14.0281H17.9345C18.5726 14.0269 19.1901 13.8021 19.6796 13.3927C20.1691 12.9834 20.4995 12.4153 20.6135 11.7875ZM8.18304 18.7041C8.18304 18.8582 8.13733 19.0089 8.0517 19.1371C7.96606 19.2652 7.84435 19.3651 7.70194 19.4241C7.55954 19.4831 7.40284 19.4985 7.25166 19.4685C7.10049 19.4384 6.96162 19.3642 6.85263 19.2552C6.74364 19.1462 6.66941 19.0073 6.63934 18.8561C6.60927 18.705 6.6247 18.5483 6.68369 18.4059C6.74268 18.2635 6.84257 18.1417 6.97073 18.0561C7.09889 17.9705 7.24957 17.9248 7.4037 17.9248C7.6104 17.9248 7.80862 18.0069 7.95478 18.153C8.10093 18.2992 8.18304 18.4974 8.18304 18.7041ZM17.5351 19.4834C17.3809 19.4834 17.2303 19.4377 17.1021 19.3521C16.9739 19.2665 16.8741 19.1447 16.8151 19.0023C16.7561 18.8599 16.7407 18.7032 16.7707 18.5521C16.8008 18.4009 16.875 18.262 16.984 18.153C17.093 18.044 17.2319 17.9698 17.383 17.9397C17.5342 17.9097 17.6909 17.9251 17.8333 17.9841C17.9757 18.0431 18.0974 18.143 18.1831 18.2711C18.2687 18.3993 18.3144 18.55 18.3144 18.7041C18.3144 18.9108 18.2323 19.109 18.0862 19.2552C17.94 19.4013 17.7418 19.4834 17.5351 19.4834ZM5.68916 6.2347H19.2496L18.3144 11.3686C18.2985 11.4581 18.2518 11.5392 18.1825 11.5979C18.1131 11.6566 18.0254 11.6892 17.9345 11.6901H6.68282L5.68916 6.2347Z" fill="#69707D"/>
</svg>
